<svg width="0" height="0" class="hidden">
  <symbol fill="none" xmlns="http://www.w3.org/2000/svg" viewBox="0 0 64 64" id="Coprorate">
    <g clip-path="url(#clip0_22728_12627)">
      <path d="M60.5262 37.7273C59.8387 37.4426 59.115 37.2982 58.3751 37.2982C56.7434 37.2982 55.2361 37.9946 54.1895 39.1615L52.9695 38.6562L49.4894 37.2147C49.9833 35.5616 50.2498 33.8113 50.2498 31.9998C50.2498 30.1883 49.9831 28.4381 49.4894 26.7849L52.9695 25.3435L54.1895 24.8381C55.2361 26.0051 56.7434 26.7014 58.3751 26.7014C59.115 26.7014 59.8387 26.5571 60.5262 26.2722C63.3916 25.0852 64.7574 21.7883 63.5704 18.9227C62.6964 16.8128 60.6559 15.4493 58.3721 15.4493C57.6322 15.4493 56.9085 15.5937 56.221 15.8786C53.9627 16.814 52.6372 19.0598 52.7572 21.3722L51.5301 21.8805L48.0511 23.3215C46.361 20.208 43.7915 17.6383 40.678 15.9483L42.119 12.4694L42.6268 11.2436C42.7251 11.2487 42.8238 11.2517 42.9228 11.2517C45.2066 11.2517 47.247 9.88836 48.1211 7.77836C49.308 4.91287 47.9424 1.61587 45.0769 0.428874C44.3893 0.144375 43.6656 0 42.9258 0C40.6419 0 38.6015 1.36337 37.7274 3.47337C36.792 5.73161 37.4428 8.25698 39.1628 9.80723L38.6563 11.0301L37.2148 14.5102C35.5617 14.0165 33.8114 13.7498 31.9999 13.7498C30.1884 13.7498 28.4382 14.0165 26.785 14.5102L25.3435 11.0301L24.8371 9.80723C26.557 8.25698 27.2078 5.73161 26.2724 3.47324C25.3983 1.36337 23.3577 0 21.0739 0C20.3341 0 19.6103 0.144375 18.9228 0.429249C16.0574 1.61625 14.6917 4.91312 15.8787 7.77874C16.7527 9.88861 18.7932 11.2521 21.0769 11.2521C21.1759 11.2521 21.2746 11.2491 21.3729 11.244L21.8807 12.4697L23.3217 15.9487C20.2082 17.6388 17.6386 20.2083 15.9486 23.3218L12.4696 21.8808L11.2425 21.3726C11.3625 19.0602 10.037 16.8143 7.77871 15.8788C7.09121 15.5941 6.36746 15.4497 5.62759 15.4497C3.34372 15.4497 1.30335 16.8131 0.429222 18.9231C-0.757651 21.7886 0.607971 25.0856 3.47347 26.2726C4.16096 26.5573 4.88471 26.7017 5.62459 26.7017C7.25633 26.7017 8.76358 26.0053 9.8102 24.8383L11.0302 25.3437L14.5103 26.7852C14.0164 28.4383 13.7499 30.1886 13.7499 32.0001C13.7499 33.8116 14.0166 35.5618 14.5103 37.2149L11.0301 38.6562L9.81008 39.1615C8.76346 37.9946 7.25621 37.2982 5.62446 37.2982C4.88459 37.2982 4.16084 37.4426 3.47334 37.7274C0.607971 38.9144 -0.757776 42.2113 0.429222 45.0769C1.30322 47.1868 3.34372 48.5503 5.62746 48.5503C6.36734 48.5503 7.09108 48.4059 7.77858 48.121C10.0368 47.1857 11.3623 44.9398 11.2423 42.6274L12.4694 42.1192L15.9484 40.6782C17.6386 43.7917 20.2081 46.3613 23.3216 48.0513L21.8806 51.5303L21.3728 52.756C21.2744 52.7509 21.1758 52.7479 21.0768 52.7479C18.7929 52.7479 16.7526 54.1113 15.8784 56.2213C14.6916 59.0868 16.0572 62.3838 18.9227 63.5708C19.6102 63.8555 20.3339 63.9999 21.0738 63.9999C23.3577 63.9999 25.3981 62.6365 26.2722 60.5265C27.2075 58.2683 26.5568 55.7429 24.8368 54.1926L25.3433 52.9698L26.7848 49.4897C28.4379 49.9834 30.1882 50.25 31.9997 50.25C33.8112 50.25 35.5614 49.9834 37.2145 49.4897L38.656 52.9698L39.1625 54.1926C37.4425 55.7429 36.7918 58.2683 37.7272 60.5266C38.6012 62.6365 40.6416 64 42.9254 64C43.6653 64 44.389 63.8556 45.0765 63.5708C47.9419 62.3838 49.3076 59.0869 48.1206 56.2213C47.2466 54.1114 45.2061 52.7479 42.9224 52.7479C42.8234 52.7479 42.7248 52.7509 42.6264 52.756L42.1186 51.5303L40.6776 48.0513C43.7911 46.3612 46.3608 43.7917 48.0508 40.6782L51.5298 42.1192L52.7569 42.6274C52.6369 44.9398 53.9624 47.1857 56.2206 48.1212C56.9081 48.4059 57.6319 48.5503 58.3717 48.5503C60.6556 48.5503 62.696 47.1869 63.5701 45.0769C64.7574 42.2113 63.3919 38.9143 60.5262 37.7273ZM31.9999 46.4998C24.0047 46.4998 17.4999 39.995 17.4999 31.9998C17.4999 24.0046 24.0047 17.4998 31.9999 17.4998C39.9952 17.4998 46.4999 24.0046 46.4999 31.9998C46.4999 39.995 39.995 46.4998 31.9999 46.4998Z" fill="black"></path>
      <path d="M60.5262 37.7273C59.8387 37.4426 59.115 37.2982 58.3751 37.2982C56.7434 37.2982 55.2361 37.9946 54.1895 39.1615L52.9695 38.6562L49.4894 37.2147C49.9833 35.5616 50.2498 33.8113 50.2498 31.9998C50.2498 30.1883 49.9831 28.4381 49.4894 26.7849L52.9695 25.3435L54.1895 24.8381C55.2361 26.0051 56.7434 26.7014 58.3751 26.7014C59.115 26.7014 59.8387 26.5571 60.5262 26.2722C63.3916 25.0852 64.7574 21.7883 63.5704 18.9227C62.6964 16.8128 60.6559 15.4493 58.3721 15.4493C57.6322 15.4493 56.9085 15.5937 56.221 15.8786C53.9627 16.814 52.6372 19.0598 52.7572 21.3722L51.5301 21.8805L48.0511 23.3215C46.361 20.208 43.7915 17.6383 40.678 15.9483L42.119 12.4694L42.6268 11.2436C42.7251 11.2487 42.8238 11.2517 42.9228 11.2517C45.2066 11.2517 47.247 9.88836 48.1211 7.77836C49.308 4.91287 47.9424 1.61587 45.0769 0.428874C44.3893 0.144375 43.6656 0 42.9258 0C40.6419 0 38.6015 1.36337 37.7274 3.47337C36.792 5.73161 37.4428 8.25698 39.1628 9.80723L38.6563 11.0301L37.2148 14.5102C35.5617 14.0165 33.8114 13.7498 31.9999 13.7498C30.1884 13.7498 28.4382 14.0165 26.785 14.5102L25.3435 11.0301L24.8371 9.80723C26.557 8.25698 27.2078 5.73161 26.2724 3.47324C25.3983 1.36337 23.3577 0 21.0739 0C20.3341 0 19.6103 0.144375 18.9228 0.429249C16.0574 1.61625 14.6917 4.91312 15.8787 7.77874C16.7527 9.88861 18.7932 11.2521 21.0769 11.2521C21.1759 11.2521 21.2746 11.2491 21.3729 11.244L21.8807 12.4697L23.3217 15.9487C20.2082 17.6388 17.6386 20.2083 15.9486 23.3218L12.4696 21.8808L11.2425 21.3726C11.3625 19.0602 10.037 16.8143 7.77871 15.8788C7.09121 15.5941 6.36746 15.4497 5.62759 15.4497C3.34372 15.4497 1.30335 16.8131 0.429222 18.9231C-0.757651 21.7886 0.607971 25.0856 3.47347 26.2726C4.16096 26.5573 4.88471 26.7017 5.62459 26.7017C7.25633 26.7017 8.76358 26.0053 9.8102 24.8383L11.0302 25.3437L14.5103 26.7852C14.0164 28.4383 13.7499 30.1886 13.7499 32.0001C13.7499 33.8116 14.0166 35.5618 14.5103 37.2149L11.0301 38.6562L9.81008 39.1615C8.76346 37.9946 7.25621 37.2982 5.62446 37.2982C4.88459 37.2982 4.16084 37.4426 3.47334 37.7274C0.607971 38.9144 -0.757776 42.2113 0.429222 45.0769C1.30322 47.1868 3.34372 48.5503 5.62746 48.5503C6.36734 48.5503 7.09108 48.4059 7.77858 48.121C10.0368 47.1857 11.3623 44.9398 11.2423 42.6274L12.4694 42.1192L15.9484 40.6782C17.6386 43.7917 20.2081 46.3613 23.3216 48.0513L21.8806 51.5303L21.3728 52.756C21.2744 52.7509 21.1758 52.7479 21.0768 52.7479C18.7929 52.7479 16.7526 54.1113 15.8784 56.2213C14.6916 59.0868 16.0572 62.3838 18.9227 63.5708C19.6102 63.8555 20.3339 63.9999 21.0738 63.9999C23.3577 63.9999 25.3981 62.6365 26.2722 60.5265C27.2075 58.2683 26.5568 55.7429 24.8368 54.1926L25.3433 52.9698L26.7848 49.4897C28.4379 49.9834 30.1882 50.25 31.9997 50.25C33.8112 50.25 35.5614 49.9834 37.2145 49.4897L38.656 52.9698L39.1625 54.1926C37.4425 55.7429 36.7918 58.2683 37.7272 60.5266C38.6012 62.6365 40.6416 64 42.9254 64C43.6653 64 44.389 63.8556 45.0765 63.5708C47.9419 62.3838 49.3076 59.0869 48.1206 56.2213C47.2466 54.1114 45.2061 52.7479 42.9224 52.7479C42.8234 52.7479 42.7248 52.7509 42.6264 52.756L42.1186 51.5303L40.6776 48.0513C43.7911 46.3612 46.3608 43.7917 48.0508 40.6782L51.5298 42.1192L52.7569 42.6274C52.6369 44.9398 53.9624 47.1857 56.2206 48.1212C56.9081 48.4059 57.6319 48.5503 58.3717 48.5503C60.6556 48.5503 62.696 47.1869 63.5701 45.0769C64.7574 42.2113 63.3919 38.9143 60.5262 37.7273ZM31.9999 46.4998C24.0047 46.4998 17.4999 39.995 17.4999 31.9998C17.4999 24.0046 24.0047 17.4998 31.9999 17.4998C39.9952 17.4998 46.4999 24.0046 46.4999 31.9998C46.4999 39.995 39.995 46.4998 31.9999 46.4998Z" fill="url(#paint0_linear_22728_12627)"></path>
      <path d="M32 21.25C26.0725 21.25 21.25 26.0725 21.25 32C21.25 37.9275 26.0725 42.75 32 42.75C37.9275 42.75 42.75 37.9275 42.75 32C42.75 26.0725 37.9275 21.25 32 21.25ZM33.875 36.125H30.125V27.875H33.875V36.125Z" fill="black"></path>
      <path d="M32 21.25C26.0725 21.25 21.25 26.0725 21.25 32C21.25 37.9275 26.0725 42.75 32 42.75C37.9275 42.75 42.75 37.9275 42.75 32C42.75 26.0725 37.9275 21.25 32 21.25ZM33.875 36.125H30.125V27.875H33.875V36.125Z" fill="url(#paint1_linear_22728_12627)"></path>
    </g>
    <defs>
      <linearGradient id="paint0_linear_22728_12627" x1="31.9998" y1="0" x2="31.9998" y2="64" gradientUnits="userSpaceOnUse">
        <stop stop-color="#EF8080"></stop>
        <stop offset="1" stop-color="#F0145A"></stop>
      </linearGradient>
      <linearGradient id="paint1_linear_22728_12627" x1="32" y1="21.25" x2="32" y2="42.75" gradientUnits="userSpaceOnUse">
        <stop stop-color="#EF8080"></stop>
        <stop offset="1" stop-color="#F0145A"></stop>
      </linearGradient>
      <clipPath id="clip0_22728_12627">
        <rect width="64" height="64" fill="white"></rect>
      </clipPath>
    </defs>
  </symbol>
  <symbol fill="none" xmlns="http://www.w3.org/2000/svg" viewBox="0 0 64 64" id="Court">
    <path d="M40.3522 20.389C41.0842 21.121 42.2702 21.123 43.0022 20.389L45.6102 17.781C46.3412 17.049 46.3392 15.863 45.6102 15.13L39.0272 8.549C38.2972 7.817 37.1112 7.817 36.3792 8.549L33.7702 11.157C33.0402 11.889 33.0402 13.075 33.7702 13.805L40.3522 20.389Z" fill="url(#paint0_linear_22728_12648)"></path>
    <path d="M24.766 36.2652C25.497 36.9942 26.683 36.9942 27.414 36.2652L30.023 33.6553C30.755 32.9253 30.755 31.7383 30.023 31.0063L23.44 24.4233C22.709 23.6933 21.523 23.6913 20.791 24.4233L18.183 27.0312C17.451 27.7632 17.453 28.9492 18.183 29.6812L24.766 36.2652Z" fill="url(#paint1_linear_22728_12648)"></path>
    <path d="M54.6481 36.8912L52.0011 34.2412C51.2671 33.5112 50.0841 33.5112 49.3531 34.2412L48.1921 35.4012L36.9871 24.1942L39.4141 21.7662L32.6811 15.0352L30.2531 17.4632L27.1611 20.5532L24.7871 22.9272L31.5191 29.6602L33.8961 27.2872L45.0991 38.4922L44.0511 39.5412C43.3191 40.2702 43.3171 41.4572 44.0511 42.1892L46.6981 44.8372C47.4321 45.5712 48.6171 45.5712 49.3481 44.8372L54.6471 39.5402C55.3801 38.8072 55.3801 37.6232 54.6481 36.8912Z" fill="url(#paint2_linear_22728_12648)"></path>
    <path d="M35.077 44.9425C35.077 43.7435 34.105 42.7695 32.904 42.7695H15.936C14.736 42.7695 13.763 43.7435 13.763 44.9425V48.4695H9V55.8585H39.558V48.4695H35.077V44.9425Z" fill="url(#paint3_linear_22728_12648)"></path>
    <defs>
      <linearGradient id="paint0_linear_22728_12648" x1="39.6902" y1="8" x2="39.6902" y2="20.9388" gradientUnits="userSpaceOnUse">
        <stop stop-color="#EF8080"></stop>
        <stop offset="1" stop-color="#F0145A"></stop>
      </linearGradient>
      <linearGradient id="paint1_linear_22728_12648" x1="24.1034" y1="23.875" x2="24.1034" y2="36.812" gradientUnits="userSpaceOnUse">
        <stop stop-color="#EF8080"></stop>
        <stop offset="1" stop-color="#F0145A"></stop>
      </linearGradient>
      <linearGradient id="paint2_linear_22728_12648" x1="39.992" y1="15.0352" x2="39.992" y2="45.3877" gradientUnits="userSpaceOnUse">
        <stop stop-color="#EF8080"></stop>
        <stop offset="1" stop-color="#F0145A"></stop>
      </linearGradient>
      <linearGradient id="paint3_linear_22728_12648" x1="24.279" y1="42.7695" x2="24.279" y2="55.8585" gradientUnits="userSpaceOnUse">
        <stop stop-color="#EF8080"></stop>
        <stop offset="1" stop-color="#F0145A"></stop>
      </linearGradient>
    </defs>
  </symbol>
  <symbol fill="none" xmlns="http://www.w3.org/2000/svg" viewBox="0 0 64 64" id="Ecommerce">
    <path d="M23.7339 28.125C24.8379 28.125 25.7339 27.229 25.7339 26.125V18.325C25.7339 14.838 28.5709 12 32.0579 12C35.5449 12 38.3829 14.838 38.3829 18.325V26.125C38.3829 27.229 39.2779 28.125 40.3829 28.125C41.4869 28.125 42.3829 27.229 42.3829 26.125V18.325C42.3839 12.632 37.7519 8 32.0579 8C26.3659 8 21.7339 12.632 21.7339 18.325V26.125C21.7339 27.229 22.6299 28.125 23.7339 28.125Z" fill="url(#paint0_linear_22728_12613)"></path>
    <path d="M55 23.6309H44.384V26.1249C44.384 28.3309 42.59 30.1249 40.384 30.1249C38.178 30.1249 36.384 28.3309 36.384 26.1249V23.6309H27.735V26.1249C27.735 28.3309 25.941 30.1249 23.735 30.1249C21.529 30.1249 19.735 28.3309 19.735 26.1249V23.6309H8.99997C8.44797 23.6309 8.10697 24.0659 8.23797 24.6019L15.236 53.0989C15.658 54.7009 17.344 55.9999 19 55.9999H45C46.658 55.9999 48.342 54.7009 48.766 53.0989L55.762 24.6019C55.893 24.0649 55.553 23.6309 55 23.6309Z" fill="url(#paint1_linear_22728_12613)"></path>
    <path d="M28.6001 34.4C28.6001 33.6265 29.2266 33 30.0001 33C30.7736 33 31.4001 33.6265 31.4001 34.4V41.35L31.4001 40C31.4001 39.2265 32.0266 38.6 32.8001 38.6C33.5736 38.6 34.2001 39.2265 34.2001 40V41.6764C34.2127 40.9141 34.8346 39.3 35.6 39.3C36.3731 39.3 36.9999 39.9268 37 40.7C37 40.7 37.0411 41.7411 37.1332 41.8033C37.3572 41.3285 37.8402 40 38.4 40C39.1732 40 39.8 40.6268 39.8 41.4V48.4C39.8 49.9463 38.5463 51.2 37 51.2H32.3198C30.8344 51.2 29.4099 50.6099 28.3599 49.5599L26.15 47.35L23 45.9402C23.0051 44.6033 24.0526 44.2 25.1 44.2C26.0023 44.2 26.8136 44.3407 28.6 45.25L28.6001 34.4Z" fill="white"></path>
    <defs>
      <linearGradient id="paint0_linear_22728_12613" x1="32.0584" y1="8" x2="32.0584" y2="28.125" gradientUnits="userSpaceOnUse">
        <stop stop-color="#EF8080"></stop>
        <stop offset="1" stop-color="#F0145A"></stop>
      </linearGradient>
      <linearGradient id="paint1_linear_22728_12613" x1="32" y1="23.6309" x2="32" y2="55.9999" gradientUnits="userSpaceOnUse">
        <stop stop-color="#EF8080"></stop>
        <stop offset="1" stop-color="#F0145A"></stop>
      </linearGradient>
    </defs>
  </symbol>
  <symbol fill="none" xmlns="http://www.w3.org/2000/svg" viewBox="0 0 64 64" id="Protection">
    <path d="M41.2317 37.6961C43.5839 37.6961 45.9096 38.2844 47.9577 39.3974C48.3296 39.5979 48.6709 39.8368 49.0194 40.0667C52.3807 33.4869 54.1545 26.5278 54.1545 19.7388C54.1545 19.3573 54.1545 18.9634 54.1423 18.5696C54.1177 18.0158 53.7238 17.5358 53.1699 17.4127C45.7361 15.7881 39.0038 11.7634 33.7115 5.78193L32.9238 4.88342C32.6899 4.61268 32.3577 4.465 32.0007 4.465C31.6192 4.41579 31.3238 4.60036 31.0899 4.85885L29.8838 6.1881C24.8623 11.7142 18.5361 15.5296 11.5946 17.2281L10.7946 17.425C10.253 17.5481 9.8715 18.0281 9.85918 18.5819C9.41612 35.8865 19.6315 48.3296 24.0377 52.8834C25.2306 54.1082 26.5606 55.3256 27.8253 56.3319C27.3509 54.9011 27.0779 53.3957 27.0779 51.8499C27.0779 44.0452 33.427 37.6961 41.2317 37.6961Z" fill="url(#paint0_linear_22728_12641)"></path>
    <path d="M46.7822 41.5593C45.0837 40.6363 43.1637 40.1562 41.2314 40.1562C34.7822 40.1562 29.5391 45.3993 29.5391 51.8486C29.5391 54.027 30.1299 56.1562 31.2622 57.9778C33.416 61.4609 37.133 63.5409 41.2314 63.5409C47.6683 63.5409 52.9237 58.2978 52.9237 51.8486C52.9237 47.5409 50.5729 43.6024 46.7822 41.5593ZM47.2196 50.2918L38.0747 57.4084L34.9527 52.5249C34.5862 51.9522 34.7538 51.1914 35.3265 50.8254C35.8999 50.4588 36.6613 50.6277 37.0261 51.1992L38.6937 53.8074L45.7076 48.3495C46.243 47.9318 47.0171 48.0273 47.4347 48.5646C47.8524 49.1013 47.7556 49.8747 47.2196 50.2918Z" fill="url(#paint1_linear_22728_12641)"></path>
    <defs>
      <linearGradient id="paint0_linear_22728_12641" x1="31.9999" y1="4.45703" x2="31.9999" y2="56.3319" gradientUnits="userSpaceOnUse">
        <stop stop-color="#EF8080"></stop>
        <stop offset="1" stop-color="#F0145A"></stop>
      </linearGradient>
      <linearGradient id="paint1_linear_22728_12641" x1="41.2314" y1="40.1562" x2="41.2314" y2="63.5409" gradientUnits="userSpaceOnUse">
        <stop stop-color="#EF8080"></stop>
        <stop offset="1" stop-color="#F0145A"></stop>
      </linearGradient>
    </defs>
  </symbol>
  <symbol fill="none" xmlns="http://www.w3.org/2000/svg" viewBox="0 0 64 64" id="Support">
    <path fill-rule="evenodd" clip-rule="evenodd" d="M53.4512 35.0781V52.3733C53.4512 55.4666 51.0269 58.0017 48.0631 58.0017H15.9701C13.0063 58.0017 10.582 55.4666 10.582 52.3733V35.0781H27.2481V42.5889L32.0166 45.7224L36.7851 42.5889V35.0781H53.4512Z" fill="url(#paint0_linear_22728_12620)"></path>
    <path fill-rule="evenodd" clip-rule="evenodd" d="M28.9185 35.0781V41.6866L32.0166 43.7222L35.1146 41.6866V35.0781H28.9185Z" fill="url(#paint1_linear_22728_12620)"></path>
    <path fill-rule="evenodd" clip-rule="evenodd" d="M12.0732 15.1445H51.9597C53.8421 15.1445 55.3805 16.8526 55.3805 18.94V29.1931C55.3805 31.2805 53.8421 32.9886 51.9597 32.9886H36.3137H27.7192H12.0732C10.1908 32.9886 8.65234 31.2805 8.65234 29.1931V18.94C8.65234 16.8526 10.1908 15.1445 12.0732 15.1445Z" fill="url(#paint2_linear_22728_12620)"></path>
    <path fill-rule="evenodd" clip-rule="evenodd" d="M23.7117 5.95508H40.3213C41.8644 5.95508 43.1272 7.21788 43.1272 8.76103V13.1384H39.5697V10.5516C39.5697 9.8542 38.9996 9.2817 38.3022 9.2817H25.7308C25.0334 9.2817 24.4633 9.8542 24.4633 10.5516V13.1384H20.9058V8.76103C20.9058 7.21788 22.1686 5.95508 23.7117 5.95508Z" fill="url(#paint3_linear_22728_12620)"></path>
    <defs>
      <linearGradient id="paint0_linear_22728_12620" x1="32.0166" y1="35.0781" x2="32.0166" y2="58.0017" gradientUnits="userSpaceOnUse">
        <stop stop-color="#EF8080"></stop>
        <stop offset="1" stop-color="#F0145A"></stop>
      </linearGradient>
      <linearGradient id="paint1_linear_22728_12620" x1="32.0166" y1="35.0781" x2="32.0166" y2="43.7222" gradientUnits="userSpaceOnUse">
        <stop stop-color="#EF8080"></stop>
        <stop offset="1" stop-color="#F0145A"></stop>
      </linearGradient>
      <linearGradient id="paint2_linear_22728_12620" x1="32.0164" y1="15.1445" x2="32.0164" y2="32.9886" gradientUnits="userSpaceOnUse">
        <stop stop-color="#EF8080"></stop>
        <stop offset="1" stop-color="#F0145A"></stop>
      </linearGradient>
      <linearGradient id="paint3_linear_22728_12620" x1="32.0165" y1="5.95508" x2="32.0165" y2="13.1384" gradientUnits="userSpaceOnUse">
        <stop stop-color="#EF8080"></stop>
        <stop offset="1" stop-color="#F0145A"></stop>
      </linearGradient>
    </defs>
  </symbol>
  <symbol fill="none" xmlns="http://www.w3.org/2000/svg" viewBox="0 0 64 64" id="Trust">
    <path d="M42.0059 56H23.0059V62H42.0059V56Z" fill="black"></path>
    <path d="M42.0059 56H23.0059V62H42.0059V56Z" fill="url(#paint0_linear_22728_12634)"></path>
    <path d="M15.1728 2.45168L1.73779 15.8867L5.27333 19.4223L18.7084 5.98722L15.1728 2.45168Z" fill="black"></path>
    <path d="M15.1728 2.45168L1.73779 15.8867L5.27333 19.4223L18.7084 5.98722L15.1728 2.45168Z" fill="url(#paint1_linear_22728_12634)"></path>
    <path d="M49.1127 2.31995L45.5771 5.85547L59.0122 19.2905L62.5477 15.755L49.1127 2.31995Z" fill="black"></path>
    <path d="M49.1127 2.31995L45.5771 5.85547L59.0122 19.2905L62.5477 15.755L49.1127 2.31995Z" fill="url(#paint2_linear_22728_12634)"></path>
    <path d="M44.5564 9.70843L41.8651 9.59436C41.089 9.48482 40.2981 9.55713 39.5548 9.80558C38.8115 10.054 38.1361 10.4718 37.5819 11.026L32.0775 16.5305L26.3239 10.7769C25.8244 10.2888 25.2011 9.94628 24.5214 9.78612C23.8416 9.62596 23.131 9.65426 22.4661 9.86798C21.8388 10.0587 21.1715 10.0755 20.5355 9.9164C19.8995 9.75732 19.3186 9.42842 18.8551 8.96483L18.0012 8.11095L7.39453 18.7175L9.12253 20.4455L9.00845 23.1368C8.89891 23.9128 8.97122 24.7037 9.21966 25.447C9.46811 26.1903 9.8859 26.8657 10.4401 27.4199L20.0525 37.0324C20.181 35.7705 20.7856 34.6051 21.7432 33.7734L18.7482 30.7785L19.4553 30.0714L22.5836 33.1996C23.027 32.9472 23.5068 32.7649 24.0059 32.6591V28.9651L22.2838 27.243L22.9908 26.5358L24.0059 27.5509V22.201C23.9948 21.3168 24.3086 20.4592 24.8879 19.791C25.4672 19.1228 26.2716 18.6904 27.1485 18.576C27.4792 18.544 27.8128 18.559 28.1393 18.6208L26.9098 17.3914L27.6169 16.6843L29.4131 18.4804C29.7312 17.864 30.2233 17.3547 30.8283 17.0154C31.4333 16.6762 32.1246 16.5221 32.8165 16.5721C33.6513 16.6697 34.4258 17.0562 35.0057 17.6647C35.5855 18.2733 35.9342 19.0655 35.9913 19.9041C36.5596 19.634 37.1894 19.5194 37.8165 19.5721C38.7075 19.6788 39.5273 20.1126 40.1166 20.7895C40.7059 21.4663 41.0229 22.3379 41.0059 23.2352V26.6591C41.916 26.8491 42.7551 27.289 43.4292 27.9293C44.1032 28.5696 44.5855 29.3851 44.822 30.2842L47.6105 27.4957L48.3176 28.2029L45.0023 31.5181C45.0024 31.5319 45.0059 31.5447 45.0059 31.5585V34.8785C45.9043 34.7845 46.7437 34.3864 47.3848 33.7501L54.225 26.9099C54.7131 26.4104 55.0556 25.7871 55.2158 25.1073C55.3759 24.4276 55.3476 23.7169 55.1339 23.0521C54.9431 22.4248 54.9264 21.7575 55.0855 21.1215C55.2445 20.4854 55.5735 19.9046 56.0371 19.441L56.8909 18.5871L46.2844 7.98047L44.5564 9.70843Z" fill="black"></path>
    <path d="M44.5564 9.70843L41.8651 9.59436C41.089 9.48482 40.2981 9.55713 39.5548 9.80558C38.8115 10.054 38.1361 10.4718 37.5819 11.026L32.0775 16.5305L26.3239 10.7769C25.8244 10.2888 25.2011 9.94628 24.5214 9.78612C23.8416 9.62596 23.131 9.65426 22.4661 9.86798C21.8388 10.0587 21.1715 10.0755 20.5355 9.9164C19.8995 9.75732 19.3186 9.42842 18.8551 8.96483L18.0012 8.11095L7.39453 18.7175L9.12253 20.4455L9.00845 23.1368C8.89891 23.9128 8.97122 24.7037 9.21966 25.447C9.46811 26.1903 9.8859 26.8657 10.4401 27.4199L20.0525 37.0324C20.181 35.7705 20.7856 34.6051 21.7432 33.7734L18.7482 30.7785L19.4553 30.0714L22.5836 33.1996C23.027 32.9472 23.5068 32.7649 24.0059 32.6591V28.9651L22.2838 27.243L22.9908 26.5358L24.0059 27.5509V22.201C23.9948 21.3168 24.3086 20.4592 24.8879 19.791C25.4672 19.1228 26.2716 18.6904 27.1485 18.576C27.4792 18.544 27.8128 18.559 28.1393 18.6208L26.9098 17.3914L27.6169 16.6843L29.4131 18.4804C29.7312 17.864 30.2233 17.3547 30.8283 17.0154C31.4333 16.6762 32.1246 16.5221 32.8165 16.5721C33.6513 16.6697 34.4258 17.0562 35.0057 17.6647C35.5855 18.2733 35.9342 19.0655 35.9913 19.9041C36.5596 19.634 37.1894 19.5194 37.8165 19.5721C38.7075 19.6788 39.5273 20.1126 40.1166 20.7895C40.7059 21.4663 41.0229 22.3379 41.0059 23.2352V26.6591C41.916 26.8491 42.7551 27.289 43.4292 27.9293C44.1032 28.5696 44.5855 29.3851 44.822 30.2842L47.6105 27.4957L48.3176 28.2029L45.0023 31.5181C45.0024 31.5319 45.0059 31.5447 45.0059 31.5585V34.8785C45.9043 34.7845 46.7437 34.3864 47.3848 33.7501L54.225 26.9099C54.7131 26.4104 55.0556 25.7871 55.2158 25.1073C55.3759 24.4276 55.3476 23.7169 55.1339 23.0521C54.9431 22.4248 54.9264 21.7575 55.0855 21.1215C55.2445 20.4854 55.5735 19.9046 56.0371 19.441L56.8909 18.5871L46.2844 7.98047L44.5564 9.70843Z" fill="url(#paint3_linear_22728_12634)"></path>
    <path d="M29.8802 21.6901C29.8042 21.0405 29.4757 20.4468 28.9657 20.0373C28.4557 19.6278 27.8051 19.4353 27.1544 19.5015C26.5232 19.5886 25.946 19.9046 25.5326 20.3894C25.1192 20.8742 24.8984 21.4941 24.9121 22.1311V33.4885C23.8512 33.4885 22.8338 33.9099 22.0837 34.66C21.3335 35.4102 20.9121 36.4276 20.9121 37.4885V47.1619C20.9202 47.8603 21.1187 48.5432 21.4861 49.1371C21.8536 49.7311 22.376 50.2135 22.9973 50.5325C23.5757 50.8412 24.0594 51.3012 24.3967 51.8634C24.734 52.4256 24.9121 53.0689 24.9121 53.7245V54.9321H39.9121V52.4885L41.8958 50.6661C42.522 50.1948 43.0301 49.5844 43.38 48.8831C43.73 48.1818 43.9121 47.4088 43.9121 46.6251V31.4885C43.9121 30.4276 43.4907 29.4102 42.7405 28.66C41.9904 27.9099 40.973 27.4885 39.9121 27.4885V23.1659C39.9291 22.5187 39.706 21.888 39.2857 21.3955C38.8655 20.903 38.2778 20.5834 37.636 20.4983C37.006 20.4426 36.3785 20.6285 35.8804 21.0183C35.3824 21.408 35.0511 21.9725 34.9537 22.5974H35.4121V38.0407H34.4121V22.5974H34.9121V20.1659C34.9291 19.5187 34.706 18.888 34.2857 18.3955C33.8655 17.903 33.2778 17.5834 32.636 17.4983C32.2902 17.4673 31.9417 17.5086 31.6128 17.6196C31.2838 17.7306 30.9816 17.909 30.7254 18.1432C30.4691 18.3775 30.2645 18.6625 30.1245 18.9802C29.9845 19.2979 29.9121 19.6413 29.9121 19.9885V21.6901H30.4121V37.1335H29.4121V21.6901H29.8802ZM25.3113 42.0407H24.3113V34.0407H25.3113V42.0407ZM39.4121 27.799H40.4121V38.2423H39.4121V27.799Z" fill="black"></path>
    <path d="M29.8802 21.6901C29.8042 21.0405 29.4757 20.4468 28.9657 20.0373C28.4557 19.6278 27.8051 19.4353 27.1544 19.5015C26.5232 19.5886 25.946 19.9046 25.5326 20.3894C25.1192 20.8742 24.8984 21.4941 24.9121 22.1311V33.4885C23.8512 33.4885 22.8338 33.9099 22.0837 34.66C21.3335 35.4102 20.9121 36.4276 20.9121 37.4885V47.1619C20.9202 47.8603 21.1187 48.5432 21.4861 49.1371C21.8536 49.7311 22.376 50.2135 22.9973 50.5325C23.5757 50.8412 24.0594 51.3012 24.3967 51.8634C24.734 52.4256 24.9121 53.0689 24.9121 53.7245V54.9321H39.9121V52.4885L41.8958 50.6661C42.522 50.1948 43.0301 49.5844 43.38 48.8831C43.73 48.1818 43.9121 47.4088 43.9121 46.6251V31.4885C43.9121 30.4276 43.4907 29.4102 42.7405 28.66C41.9904 27.9099 40.973 27.4885 39.9121 27.4885V23.1659C39.9291 22.5187 39.706 21.888 39.2857 21.3955C38.8655 20.903 38.2778 20.5834 37.636 20.4983C37.006 20.4426 36.3785 20.6285 35.8804 21.0183C35.3824 21.408 35.0511 21.9725 34.9537 22.5974H35.4121V38.0407H34.4121V22.5974H34.9121V20.1659C34.9291 19.5187 34.706 18.888 34.2857 18.3955C33.8655 17.903 33.2778 17.5834 32.636 17.4983C32.2902 17.4673 31.9417 17.5086 31.6128 17.6196C31.2838 17.7306 30.9816 17.909 30.7254 18.1432C30.4691 18.3775 30.2645 18.6625 30.1245 18.9802C29.9845 19.2979 29.9121 19.6413 29.9121 19.9885V21.6901H30.4121V37.1335H29.4121V21.6901H29.8802ZM25.3113 42.0407H24.3113V34.0407H25.3113V42.0407ZM39.4121 27.799H40.4121V38.2423H39.4121V27.799Z" fill="url(#paint4_linear_22728_12634)"></path>
    <defs>
      <linearGradient id="paint0_linear_22728_12634" x1="32.5059" y1="56" x2="32.5059" y2="62" gradientUnits="userSpaceOnUse">
        <stop stop-color="#EF8080"></stop>
        <stop offset="1" stop-color="#F0145A"></stop>
      </linearGradient>
      <linearGradient id="paint1_linear_22728_12634" x1="8.45531" y1="9.1692" x2="11.9909" y2="12.7047" gradientUnits="userSpaceOnUse">
        <stop stop-color="#EF8080"></stop>
        <stop offset="1" stop-color="#F0145A"></stop>
      </linearGradient>
      <linearGradient id="paint2_linear_22728_12634" x1="47.3449" y1="4.08771" x2="60.78" y2="17.5228" gradientUnits="userSpaceOnUse">
        <stop stop-color="#EF8080"></stop>
        <stop offset="1" stop-color="#F0145A"></stop>
      </linearGradient>
      <linearGradient id="paint3_linear_22728_12634" x1="32.1427" y1="7.98047" x2="32.1427" y2="37.0324" gradientUnits="userSpaceOnUse">
        <stop stop-color="#EF8080"></stop>
        <stop offset="1" stop-color="#F0145A"></stop>
      </linearGradient>
      <linearGradient id="paint4_linear_22728_12634" x1="32.4121" y1="17.4883" x2="32.4121" y2="54.9321" gradientUnits="userSpaceOnUse">
        <stop stop-color="#EF8080"></stop>
        <stop offset="1" stop-color="#F0145A"></stop>
      </linearGradient>
    </defs>
  </symbol>
  
  <symbol fill="none" xmlns="http://www.w3.org/2000/svg" viewBox="0 0 24 25" id="vector" vievport="0 0 24 25">
    <path d="M24 12.5733C24 5.90541 18.6274 0.5 12 0.5C5.37258 0.5 0 5.90541 0 12.5733C0 18.5995 4.38823 23.5943 10.125 24.5V16.0633H7.07813V12.5733H10.125V9.91343C10.125 6.88755 11.9165 5.21615 14.6576 5.21615C15.9705 5.21615 17.3438 5.45195 17.3438 5.45195V8.42313H15.8306C14.3399 8.42313 13.875 9.35379 13.875 10.3086V12.5733H17.2031L16.6711 16.0633H13.875V24.5C19.6118 23.5943 24 18.5995 24 12.5733Z" fill="white"></path>
  </symbol>
  <symbol fill="none" xmlns="http://www.w3.org/2000/svg" viewBox="0 0 24 25" id="vector__footer" vievport="0 0 24 25">
    <path d="M24 12.5733C24 5.90541 18.6274 0.5 12 0.5C5.37258 0.5 0 5.90541 0 12.5733C0 18.5995 4.38823 23.5943 10.125 24.5V16.0633H7.07813V12.5733H10.125V9.91343C10.125 6.88755 11.9165 5.21615 14.6576 5.21615C15.9705 5.21615 17.3438 5.45195 17.3438 5.45195V8.42313H15.8306C14.3399 8.42313 13.875 9.35379 13.875 10.3086V12.5733H17.2031L16.6711 16.0633H13.875V24.5C19.6118 23.5943 24 18.5995 24 12.5733Z" fill="#24A3FF"></path>
  </symbol>
  <symbol fill="none" xmlns="http://www.w3.org/2000/svg" viewBox="0 0 24 25" id="vector-gray" vievport="0 0 24 25">
    <path d="M24 12.5733C24 5.90541 18.6274 0.5 12 0.5C5.37258 0.5 0 5.90541 0 12.5733C0 18.5995 4.38823 23.5943 10.125 24.5V16.0633H7.07813V12.5733H10.125V9.91343C10.125 6.88755 11.9165 5.21615 14.6576 5.21615C15.9705 5.21615 17.3438 5.45195 17.3438 5.45195V8.42313H15.8306C14.3399 8.42313 13.875 9.35379 13.875 10.3086V12.5733H17.2031L16.6711 16.0633H13.875V24.5C19.6118 23.5943 24 18.5995 24 12.5733Z" fill="#B3B3BA"></path>
  </symbol>
  <symbol fill="none" xmlns="http://www.w3.org/2000/svg" viewBox="0 0 32 33" id="Hamburger">
    <path d="M7 10.5H25" stroke="white" stroke-width="2"></path>
    <path d="M7 16.5H25" stroke="white" stroke-width="2"></path>
    <path d="M7 22.5H25" stroke="white" stroke-width="2"></path>
  </symbol>
  <symbol fill="none" xmlns="http://www.w3.org/2000/svg" viewBox="0 0 32 33" id="Hamburger-blue">
    <path d="M7 10.5H25" stroke="#323264" stroke-width="2"></path>
    <path d="M7 16.5H25" stroke="#323264" stroke-width="2"></path>
    <path d="M7 22.5H25" stroke="#323264" stroke-width="2"></path>
  </symbol>
  <symbol fill="none" xmlns="http://www.w3.org/2000/svg" viewBox="0 0 70 33" id="Logo">
    <path d="M2.64358 0H0V19.0926H2.64358V12.0094C2.64358 10.8111 2.94163 9.86583 3.53774 9.20012C4.13384 8.53441 4.95024 8.18824 5.96102 8.18824C6.82926 8.18824 7.55495 8.50778 8.13809 9.12024C8.72123 9.74601 9.01929 10.5315 9.01929 11.4769V19.1059H11.6758V11.4769C11.6758 9.71938 11.1964 8.3347 10.2374 7.29619C9.27846 6.25768 8.02146 5.73843 6.49233 5.73843C6.05173 5.73843 5.61114 5.79168 5.1835 5.91151C4.7429 6.03134 4.39301 6.16448 4.10792 6.31094C3.82283 6.45739 3.5507 6.61717 3.30448 6.80356C3.05826 6.98996 2.8898 7.12311 2.81205 7.20299C2.73429 7.28288 2.6695 7.33613 2.64358 7.37608V0Z" fill="#F0145A"></path>
    <path d="M17.5856 0H14.8604V19.0767H17.5856V0Z" fill="white"></path>
    <path d="M33.6598 13.4896L33.796 12.127C33.796 10.3011 33.1965 8.77493 31.9701 7.54857C30.7438 6.32221 29.2176 5.72266 27.3917 5.72266C25.5658 5.72266 23.9851 6.37672 22.677 7.68483C21.3689 8.99295 20.7148 10.5463 20.7148 12.3995C20.7148 14.3072 21.3962 15.9423 22.7315 17.305C24.0669 18.6676 25.6748 19.3489 27.528 19.3489C28.2365 19.3489 28.8906 19.2399 29.5446 19.0491C30.1987 18.8311 30.7438 18.6131 31.1253 18.3951C31.5341 18.1498 31.9429 17.8773 32.2971 17.5775C32.6514 17.2777 32.8967 17.0597 33.0057 16.9234C33.1147 16.7872 33.1965 16.7054 33.251 16.6236L31.4796 14.8522L31.0708 15.37C30.7983 15.6971 30.335 16.0241 29.6809 16.3784C28.9996 16.7327 28.291 16.8962 27.528 16.8962C26.4651 16.8962 25.5658 16.5691 24.8027 15.8878C24.0396 15.2065 23.5764 14.4162 23.4401 13.4896H33.6598ZM27.3917 8.03912C28.4 8.03912 29.2176 8.33889 29.8989 8.9112C30.553 9.51075 30.9618 10.2466 31.1253 11.1732H23.5491C23.7944 10.2466 24.2304 9.51075 24.9117 8.9112C25.5658 8.33889 26.4106 8.03912 27.3917 8.03912Z" fill="white"></path>
    <path d="M46.3695 18.286C46.3695 19.4852 46.0153 20.4662 45.2794 21.2293C44.5709 21.9651 43.6715 22.3467 42.5542 22.3467C42.0637 22.3467 41.5731 22.2649 41.1098 22.1286C40.6465 21.9924 40.2922 21.8289 39.9925 21.6381C39.6927 21.4473 39.4202 21.2566 39.1476 21.0113C38.9024 20.766 38.7389 20.6025 38.6571 20.5207C38.5753 20.439 38.5208 20.3572 38.4663 20.3027L36.6949 22.0741L36.9129 22.3467C37.0492 22.5374 37.2945 22.7827 37.6215 23.0552C37.9485 23.3005 38.3301 23.573 38.7661 23.8455C39.2021 24.0908 39.7472 24.3088 40.4285 24.4996C41.1098 24.6904 41.8184 24.7994 42.5542 24.7994C44.4074 24.7994 45.9335 24.1726 47.2144 22.919C48.468 21.6381 49.0948 20.112 49.0948 18.2588V5.99518H46.3695V7.3578L45.9062 6.94902C45.6065 6.67649 45.1432 6.40397 44.4891 6.13144C43.8351 5.85892 43.1265 5.72266 42.4179 5.72266C40.7555 5.72266 39.3384 6.34946 38.112 7.63033C36.8857 8.9112 36.2861 10.4373 36.2861 12.2632C36.2861 14.0892 36.8857 15.6153 38.112 16.8962C39.3384 18.177 40.7555 18.8038 42.4179 18.8038C42.8812 18.8038 43.3173 18.7493 43.7806 18.6403C44.2166 18.5041 44.5709 18.3678 44.8707 18.2315C45.1704 18.0953 45.443 17.9318 45.6882 17.741C45.9335 17.5502 46.1243 17.414 46.1788 17.3595L46.3695 17.1687V18.286ZM39.0114 12.2632C39.0114 11.1186 39.3657 10.1648 40.1015 9.37449C40.8373 8.58417 41.7094 8.17538 42.6905 8.17538C43.6715 8.17538 44.5436 8.58417 45.2794 9.37449C45.988 10.1648 46.3695 11.1186 46.3695 12.2632C46.3695 13.4079 45.988 14.3617 45.2794 15.152C44.5436 15.9423 43.6715 16.3511 42.6905 16.3511C41.7094 16.3511 40.8373 15.9423 40.1015 15.152C39.3657 14.3617 39.0114 13.4079 39.0114 12.2632Z" fill="white"></path>
    <path d="M63.3195 19.0764V10.6281C63.3195 9.23823 62.8017 8.06637 61.7934 7.13979C60.7851 6.18595 59.4769 5.72266 57.869 5.72266C57.2422 5.72266 56.6154 5.80441 56.0159 5.96793C55.4163 6.1587 54.9258 6.34946 54.5715 6.56748C54.2172 6.7855 53.8629 7.03078 53.5359 7.33055C53.2089 7.60308 53.0181 7.79384 52.9091 7.90285C52.8273 8.01186 52.7456 8.09362 52.6911 8.17538L54.4625 9.94679L54.8168 9.4835C55.0348 9.18372 55.4163 8.9112 55.9886 8.61142C56.5609 8.31164 57.1877 8.17538 57.869 8.17538C58.6594 8.17538 59.3134 8.42065 59.8312 8.88394C60.349 9.34724 60.5943 9.94679 60.5943 10.6281L55.8251 11.4457C54.6533 11.6364 53.6994 12.0997 53.0454 12.8356C52.364 13.5714 52.0098 14.4707 52.0098 15.5335C52.0098 16.5419 52.4458 17.414 53.3179 18.177C54.2172 18.9674 55.3073 19.3489 56.6427 19.3489C57.106 19.3489 57.542 19.2944 57.9781 19.1581C58.4413 19.0491 58.7956 18.9129 59.0954 18.7766C59.3952 18.6403 59.6677 18.4768 59.913 18.286C60.1582 18.0953 60.3218 17.959 60.4308 17.9045C60.5125 17.8228 60.567 17.741 60.5943 17.7137V19.0764H63.3195ZM57.0515 16.8962C56.3429 16.8962 55.7706 16.7327 55.3618 16.4056C54.9258 16.0786 54.735 15.6971 54.735 15.261C54.735 14.7977 54.8713 14.3889 55.1711 14.0892C55.4708 13.7894 55.8796 13.5714 56.3702 13.4896L60.5943 12.8083V13.0808C60.5943 14.3072 60.2945 15.2338 59.6677 15.9151C59.0409 16.5691 58.1688 16.8962 57.0515 16.8962Z" fill="white"></path>
    <path d="M69.3337 0H66.6084V19.0767H69.3337V0Z" fill="white"></path>
    <path d="M0 28.3308H0.852878V31.3211H2.70078V32.016H0V28.3308Z" fill="white"></path>
    <path d="M8.26752 31.2263H6.5565L6.23009 32.016H5.35615L6.99873 28.3308H7.84108L9.48893 32.016H8.59393L8.26752 31.2263ZM7.99902 30.5788L7.41464 29.1678L6.83026 30.5788H7.99902Z" fill="white"></path>
    <path d="M17.8731 28.3308L16.6675 32.016H15.7515L14.9407 29.5206L14.1036 32.016H13.1928L11.982 28.3308H12.8664L13.6982 30.921L14.5669 28.3308H15.3566L16.199 30.942L17.0571 28.3308H17.8731Z" fill="white"></path>
    <path d="M26.9457 32.0792C26.5702 32.0792 26.2297 31.9985 25.9244 31.837C25.6225 31.6721 25.3838 31.4457 25.2084 31.1579C25.0364 30.8666 24.9504 30.5384 24.9504 30.1734C24.9504 29.8084 25.0364 29.482 25.2084 29.1942C25.3838 28.9028 25.6225 28.6765 25.9244 28.515C26.2297 28.3501 26.5719 28.2676 26.951 28.2676C27.2704 28.2676 27.5582 28.3237 27.8144 28.436C28.0741 28.5484 28.2917 28.7098 28.4672 28.9204L27.9197 29.4258C27.6705 29.138 27.3616 28.9941 26.9931 28.9941C26.7649 28.9941 26.5614 29.045 26.3824 29.1468C26.2034 29.2451 26.063 29.3837 25.9612 29.5627C25.8629 29.7417 25.8138 29.9453 25.8138 30.1734C25.8138 30.4015 25.8629 30.6051 25.9612 30.7841C26.063 30.9631 26.2034 31.1035 26.3824 31.2053C26.5614 31.3035 26.7649 31.3527 26.9931 31.3527C27.3616 31.3527 27.6705 31.207 27.9197 30.9157L28.4672 31.4211C28.2917 31.6352 28.0741 31.7984 27.8144 31.9107C27.5547 32.0231 27.2651 32.0792 26.9457 32.0792Z" fill="white"></path>
    <path d="M33.3831 32.0792C33.0005 32.0792 32.6548 31.9967 32.3459 31.8318C32.0406 31.6668 31.8002 31.4404 31.6247 31.1526C31.4527 30.8613 31.3667 30.5349 31.3667 30.1734C31.3667 29.8119 31.4527 29.4872 31.6247 29.1994C31.8002 28.9081 32.0406 28.68 32.3459 28.515C32.6548 28.3501 33.0005 28.2676 33.3831 28.2676C33.7657 28.2676 34.1096 28.3501 34.415 28.515C34.7203 28.68 34.9607 28.9081 35.1362 29.1994C35.3117 29.4872 35.3995 29.8119 35.3995 30.1734C35.3995 30.5349 35.3117 30.8613 35.1362 31.1526C34.9607 31.4404 34.7203 31.6668 34.415 31.8318C34.1096 31.9967 33.7657 32.0792 33.3831 32.0792ZM33.3831 31.3527C33.6007 31.3527 33.7972 31.3035 33.9727 31.2053C34.1482 31.1035 34.2851 30.9631 34.3834 30.7841C34.4852 30.6051 34.5361 30.4015 34.5361 30.1734C34.5361 29.9453 34.4852 29.7417 34.3834 29.5627C34.2851 29.3837 34.1482 29.2451 33.9727 29.1468C33.7972 29.045 33.6007 28.9941 33.3831 28.9941C33.1655 28.9941 32.9689 29.045 32.7934 29.1468C32.618 29.2451 32.4793 29.3837 32.3775 29.5627C32.2793 29.7417 32.2301 29.9453 32.2301 30.1734C32.2301 30.4015 32.2793 30.6051 32.3775 30.7841C32.4793 30.9631 32.618 31.1035 32.7934 31.2053C32.9689 31.3035 33.1655 31.3527 33.3831 31.3527Z" fill="white"></path>
    <path d="M42.0264 32.016L42.0211 29.8049L40.9366 31.6264H40.5523L39.473 29.8522V32.016H38.6728V28.3308H39.3782L40.7576 30.6209L42.1159 28.3308H42.8161L42.8266 32.016H42.0264Z" fill="white"></path>
    <path d="M47.9285 28.3308C48.2549 28.3308 48.5374 28.3852 48.7761 28.494C49.0183 28.6028 49.2043 28.7572 49.3342 28.9573C49.464 29.1573 49.529 29.3942 49.529 29.668C49.529 29.9382 49.464 30.1751 49.3342 30.3787C49.2043 30.5788 49.0183 30.7332 48.7761 30.842C48.5374 30.9473 48.2549 30.9999 47.9285 30.9999H47.1862V32.016H46.3333V28.3308H47.9285ZM47.8811 30.305C48.1373 30.305 48.3321 30.2506 48.4655 30.1418C48.5989 30.0295 48.6656 29.8716 48.6656 29.668C48.6656 29.4609 48.5989 29.303 48.4655 29.1942C48.3321 29.0818 48.1373 29.0257 47.8811 29.0257H47.1862V30.305H47.8811Z" fill="white"></path>
    <path d="M55.0121 31.2263H53.3011L52.9747 32.016H52.1008L53.7433 28.3308H54.5857L56.2335 32.016H55.3385L55.0121 31.2263ZM54.7436 30.5788L54.1592 29.1678L53.5749 30.5788H54.7436Z" fill="white"></path>
    <path d="M62.6281 28.3308V32.016H61.9279L60.0906 29.7785V32.016H59.2482V28.3308H59.9537L61.7858 30.5682V28.3308H62.6281Z" fill="white"></path>
    <path d="M67.9013 30.7104V32.016H67.0485V30.6999L65.6217 28.3308H66.5273L67.5117 29.9681L68.4963 28.3308H69.3333L67.9013 30.7104Z" fill="white"></path>




  <symbol fill="none" xmlns="http://www.w3.org/2000/svg" viewBox="0 0 70 33" id="Logo-blue">
    <path d="M2.64358 0H0V19.0926H2.64358V12.0094C2.64358 10.8111 2.94163 9.86583 3.53774 9.20012C4.13384 8.53441 4.95024 8.18824 5.96102 8.18824C6.82926 8.18824 7.55495 8.50778 8.13809 9.12024C8.72123 9.74601 9.01929 10.5315 9.01929 11.4769V19.1059H11.6758V11.4769C11.6758 9.71938 11.1964 8.3347 10.2374 7.29619C9.27846 6.25768 8.02146 5.73843 6.49233 5.73843C6.05173 5.73843 5.61114 5.79168 5.1835 5.91151C4.7429 6.03134 4.39301 6.16448 4.10792 6.31094C3.82283 6.45739 3.5507 6.61717 3.30448 6.80356C3.05826 6.98996 2.8898 7.12311 2.81205 7.20299C2.73429 7.28288 2.6695 7.33613 2.64358 7.37608V0Z" fill="#F0145A"></path>
    <path d="M17.5856 0H14.8604V19.0767H17.5856V0Z" fill="#323264"></path>
    <path d="M33.6598 13.4896L33.796 12.127C33.796 10.3011 33.1965 8.77493 31.9701 7.54857C30.7438 6.32221 29.2176 5.72266 27.3917 5.72266C25.5658 5.72266 23.9851 6.37672 22.677 7.68483C21.3689 8.99295 20.7148 10.5463 20.7148 12.3995C20.7148 14.3072 21.3962 15.9423 22.7315 17.305C24.0669 18.6676 25.6748 19.3489 27.528 19.3489C28.2365 19.3489 28.8906 19.2399 29.5446 19.0491C30.1987 18.8311 30.7438 18.6131 31.1253 18.3951C31.5341 18.1498 31.9429 17.8773 32.2971 17.5775C32.6514 17.2777 32.8967 17.0597 33.0057 16.9234C33.1147 16.7872 33.1965 16.7054 33.251 16.6236L31.4796 14.8522L31.0708 15.37C30.7983 15.6971 30.335 16.0241 29.6809 16.3784C28.9996 16.7327 28.291 16.8962 27.528 16.8962C26.4651 16.8962 25.5658 16.5691 24.8027 15.8878C24.0396 15.2065 23.5764 14.4162 23.4401 13.4896H33.6598ZM27.3917 8.03912C28.4 8.03912 29.2176 8.33889 29.8989 8.9112C30.553 9.51075 30.9618 10.2466 31.1253 11.1732H23.5491C23.7944 10.2466 24.2304 9.51075 24.9117 8.9112C25.5658 8.33889 26.4106 8.03912 27.3917 8.03912Z" fill="#323264"></path>
    <path d="M46.3695 18.286C46.3695 19.4852 46.0153 20.4662 45.2794 21.2293C44.5709 21.9651 43.6715 22.3467 42.5542 22.3467C42.0637 22.3467 41.5731 22.2649 41.1098 22.1286C40.6465 21.9924 40.2922 21.8289 39.9925 21.6381C39.6927 21.4473 39.4202 21.2566 39.1476 21.0113C38.9024 20.766 38.7389 20.6025 38.6571 20.5207C38.5753 20.439 38.5208 20.3572 38.4663 20.3027L36.6949 22.0741L36.9129 22.3467C37.0492 22.5374 37.2945 22.7827 37.6215 23.0552C37.9485 23.3005 38.3301 23.573 38.7661 23.8455C39.2021 24.0908 39.7472 24.3088 40.4285 24.4996C41.1098 24.6904 41.8184 24.7994 42.5542 24.7994C44.4074 24.7994 45.9335 24.1726 47.2144 22.919C48.468 21.6381 49.0948 20.112 49.0948 18.2588V5.99518H46.3695V7.3578L45.9062 6.94902C45.6065 6.67649 45.1432 6.40397 44.4891 6.13144C43.8351 5.85892 43.1265 5.72266 42.4179 5.72266C40.7555 5.72266 39.3384 6.34946 38.112 7.63033C36.8857 8.9112 36.2861 10.4373 36.2861 12.2632C36.2861 14.0892 36.8857 15.6153 38.112 16.8962C39.3384 18.177 40.7555 18.8038 42.4179 18.8038C42.8812 18.8038 43.3173 18.7493 43.7806 18.6403C44.2166 18.5041 44.5709 18.3678 44.8707 18.2315C45.1704 18.0953 45.443 17.9318 45.6882 17.741C45.9335 17.5502 46.1243 17.414 46.1788 17.3595L46.3695 17.1687V18.286ZM39.0114 12.2632C39.0114 11.1186 39.3657 10.1648 40.1015 9.37449C40.8373 8.58417 41.7094 8.17538 42.6905 8.17538C43.6715 8.17538 44.5436 8.58417 45.2794 9.37449C45.988 10.1648 46.3695 11.1186 46.3695 12.2632C46.3695 13.4079 45.988 14.3617 45.2794 15.152C44.5436 15.9423 43.6715 16.3511 42.6905 16.3511C41.7094 16.3511 40.8373 15.9423 40.1015 15.152C39.3657 14.3617 39.0114 13.4079 39.0114 12.2632Z" fill="#323264"></path>
    <path d="M63.3195 19.0764V10.6281C63.3195 9.23823 62.8017 8.06637 61.7934 7.13979C60.7851 6.18595 59.4769 5.72266 57.869 5.72266C57.2422 5.72266 56.6154 5.80441 56.0159 5.96793C55.4163 6.1587 54.9258 6.34946 54.5715 6.56748C54.2172 6.7855 53.8629 7.03078 53.5359 7.33055C53.2089 7.60308 53.0181 7.79384 52.9091 7.90285C52.8273 8.01186 52.7456 8.09362 52.6911 8.17538L54.4625 9.94679L54.8168 9.4835C55.0348 9.18372 55.4163 8.9112 55.9886 8.61142C56.5609 8.31164 57.1877 8.17538 57.869 8.17538C58.6594 8.17538 59.3134 8.42065 59.8312 8.88394C60.349 9.34724 60.5943 9.94679 60.5943 10.6281L55.8251 11.4457C54.6533 11.6364 53.6994 12.0997 53.0454 12.8356C52.364 13.5714 52.0098 14.4707 52.0098 15.5335C52.0098 16.5419 52.4458 17.414 53.3179 18.177C54.2172 18.9674 55.3073 19.3489 56.6427 19.3489C57.106 19.3489 57.542 19.2944 57.9781 19.1581C58.4413 19.0491 58.7956 18.9129 59.0954 18.7766C59.3952 18.6403 59.6677 18.4768 59.913 18.286C60.1582 18.0953 60.3218 17.959 60.4308 17.9045C60.5125 17.8228 60.567 17.741 60.5943 17.7137V19.0764H63.3195ZM57.0515 16.8962C56.3429 16.8962 55.7706 16.7327 55.3618 16.4056C54.9258 16.0786 54.735 15.6971 54.735 15.261C54.735 14.7977 54.8713 14.3889 55.1711 14.0892C55.4708 13.7894 55.8796 13.5714 56.3702 13.4896L60.5943 12.8083V13.0808C60.5943 14.3072 60.2945 15.2338 59.6677 15.9151C59.0409 16.5691 58.1688 16.8962 57.0515 16.8962Z" fill="#323264"></path>
    <path d="M69.3337 0H66.6084V19.0767H69.3337V0Z" fill="#323264"></path>
    <path d="M0 28.3308H0.852878V31.3211H2.70078V32.016H0V28.3308Z" fill="#323264"></path>
    <path d="M8.26752 31.2263H6.5565L6.23009 32.016H5.35615L6.99873 28.3308H7.84108L9.48893 32.016H8.59393L8.26752 31.2263ZM7.99902 30.5788L7.41464 29.1678L6.83026 30.5788H7.99902Z" fill="#323264"></path>
    <path d="M17.8731 28.3308L16.6675 32.016H15.7515L14.9407 29.5206L14.1036 32.016H13.1928L11.982 28.3308H12.8664L13.6982 30.921L14.5669 28.3308H15.3566L16.199 30.942L17.0571 28.3308H17.8731Z" fill="#323264"></path>
    <path d="M26.9457 32.0792C26.5702 32.0792 26.2297 31.9985 25.9244 31.837C25.6225 31.6721 25.3838 31.4457 25.2084 31.1579C25.0364 30.8666 24.9504 30.5384 24.9504 30.1734C24.9504 29.8084 25.0364 29.482 25.2084 29.1942C25.3838 28.9028 25.6225 28.6765 25.9244 28.515C26.2297 28.3501 26.5719 28.2676 26.951 28.2676C27.2704 28.2676 27.5582 28.3237 27.8144 28.436C28.0741 28.5484 28.2917 28.7098 28.4672 28.9204L27.9197 29.4258C27.6705 29.138 27.3616 28.9941 26.9931 28.9941C26.7649 28.9941 26.5614 29.045 26.3824 29.1468C26.2034 29.2451 26.063 29.3837 25.9612 29.5627C25.8629 29.7417 25.8138 29.9453 25.8138 30.1734C25.8138 30.4015 25.8629 30.6051 25.9612 30.7841C26.063 30.9631 26.2034 31.1035 26.3824 31.2053C26.5614 31.3035 26.7649 31.3527 26.9931 31.3527C27.3616 31.3527 27.6705 31.207 27.9197 30.9157L28.4672 31.4211C28.2917 31.6352 28.0741 31.7984 27.8144 31.9107C27.5547 32.0231 27.2651 32.0792 26.9457 32.0792Z" fill="#323264"></path>
    <path d="M33.3831 32.0792C33.0005 32.0792 32.6548 31.9967 32.3459 31.8318C32.0406 31.6668 31.8002 31.4404 31.6247 31.1526C31.4527 30.8613 31.3667 30.5349 31.3667 30.1734C31.3667 29.8119 31.4527 29.4872 31.6247 29.1994C31.8002 28.9081 32.0406 28.68 32.3459 28.515C32.6548 28.3501 33.0005 28.2676 33.3831 28.2676C33.7657 28.2676 34.1096 28.3501 34.415 28.515C34.7203 28.68 34.9607 28.9081 35.1362 29.1994C35.3117 29.4872 35.3995 29.8119 35.3995 30.1734C35.3995 30.5349 35.3117 30.8613 35.1362 31.1526C34.9607 31.4404 34.7203 31.6668 34.415 31.8318C34.1096 31.9967 33.7657 32.0792 33.3831 32.0792ZM33.3831 31.3527C33.6007 31.3527 33.7972 31.3035 33.9727 31.2053C34.1482 31.1035 34.2851 30.9631 34.3834 30.7841C34.4852 30.6051 34.5361 30.4015 34.5361 30.1734C34.5361 29.9453 34.4852 29.7417 34.3834 29.5627C34.2851 29.3837 34.1482 29.2451 33.9727 29.1468C33.7972 29.045 33.6007 28.9941 33.3831 28.9941C33.1655 28.9941 32.9689 29.045 32.7934 29.1468C32.618 29.2451 32.4793 29.3837 32.3775 29.5627C32.2793 29.7417 32.2301 29.9453 32.2301 30.1734C32.2301 30.4015 32.2793 30.6051 32.3775 30.7841C32.4793 30.9631 32.618 31.1035 32.7934 31.2053C32.9689 31.3035 33.1655 31.3527 33.3831 31.3527Z" fill="#323264"></path>
    <path d="M42.0264 32.016L42.0211 29.8049L40.9366 31.6264H40.5523L39.473 29.8522V32.016H38.6728V28.3308H39.3782L40.7576 30.6209L42.1159 28.3308H42.8161L42.8266 32.016H42.0264Z" fill="#323264"></path>
    <path d="M47.9285 28.3308C48.2549 28.3308 48.5374 28.3852 48.7761 28.494C49.0183 28.6028 49.2043 28.7572 49.3342 28.9573C49.464 29.1573 49.529 29.3942 49.529 29.668C49.529 29.9382 49.464 30.1751 49.3342 30.3787C49.2043 30.5788 49.0183 30.7332 48.7761 30.842C48.5374 30.9473 48.2549 30.9999 47.9285 30.9999H47.1862V32.016H46.3333V28.3308H47.9285ZM47.8811 30.305C48.1373 30.305 48.3321 30.2506 48.4655 30.1418C48.5989 30.0295 48.6656 29.8716 48.6656 29.668C48.6656 29.4609 48.5989 29.303 48.4655 29.1942C48.3321 29.0818 48.1373 29.0257 47.8811 29.0257H47.1862V30.305H47.8811Z" fill="#323264"></path>
    <path d="M55.0121 31.2263H53.3011L52.9747 32.016H52.1008L53.7433 28.3308H54.5857L56.2335 32.016H55.3385L55.0121 31.2263ZM54.7436 30.5788L54.1592 29.1678L53.5749 30.5788H54.7436Z" fill="#323264"></path>
    <path d="M62.6281 28.3308V32.016H61.9279L60.0906 29.7785V32.016H59.2482V28.3308H59.9537L61.7858 30.5682V28.3308H62.6281Z" fill="#323264"></path>
    <path d="M67.9013 30.7104V32.016H67.0485V30.6999L65.6217 28.3308H66.5273L67.5117 29.9681L68.4963 28.3308H69.3333L67.9013 30.7104Z" fill="#323264"></path>
  </symbol>
  <symbol fill="none" xmlns="http://www.w3.org/2000/svg" viewBox="0 0 24 25" id="facebook">
    <g clip-path="url(#clip0_22724_9607)">
      <path d="M22.6755 0.890625H1.3245C0.5925 0.890625 0 1.48313 0 2.21513V23.5661C0 24.2981 0.5925 24.8906 1.3245 24.8906H12.819V15.5966H9.69V11.9756H12.819V9.30112C12.819 6.20212 14.712 4.51613 17.478 4.51613C18.8025 4.51613 19.941 4.61212 20.2725 4.65712V7.89713H18.3525C16.8525 7.89713 16.56 8.61712 16.56 9.66712V11.9771H20.145L19.68 15.6071H16.56V24.8906H22.6755C23.4075 24.8906 24 24.2981 24 23.5661V2.21513C24 1.48313 23.4075 0.890625 22.6755 0.890625Z" fill="#435695"></path>
    </g>
    <defs>
      <clipPath id="clip0_22724_9607">
        <rect width="24" height="24" fill="white" transform="translate(0 0.890625)"></rect>
      </clipPath>
    </defs>
  </symbol>
  <symbol fill="none" xmlns="http://www.w3.org/2000/svg" viewBox="0 0 24 25" id="linkedin">
    <path d="M3.6 9.89062H7.2V21.2906H3.6V9.89062ZM5.4 4.19063C6.6 4.19063 7.5 5.09062 7.5 6.29062C7.35 7.34062 6.45 8.39062 5.4 8.39062C4.2 8.39062 3.3 7.34062 3.3 6.29062C3.3 5.09062 4.2 4.19063 5.4 4.19063ZM9.3 9.89062H12.75V11.3906C13.5 10.1906 14.85 9.59063 16.2 9.59063C19.8 9.59063 20.4 11.9906 20.4 14.9906V21.2906H16.8V15.7406C16.8 14.3906 16.8 12.7406 15 12.7406C13.2 12.7406 12.9 14.2406 12.9 15.7406V21.4406H9.3V9.89062ZM19.5 0.890625H4.5C1.5 0.890625 0 2.39062 0 5.39062V20.3906C0 23.3906 1.5 24.8906 4.5 24.8906H19.5C22.5 24.8906 24 23.3906 24 20.3906V5.39062C24 2.39062 22.5 0.890625 19.5 0.890625Z" fill="#1178B3"></path>
  </symbol>
  <symbol fill="none" xmlns="http://www.w3.org/2000/svg" viewBox="0 0 24 22" id="tg">
    <path d="M8.99997 16.832L7.49997 12.332L24 0.332031L0.932967 9.20303C0.932967 9.20303 -0.0750331 9.54803 0.00446695 10.1855C0.0839669 10.823 0.907467 11.114 0.907467 11.114L6.26997 12.9185L8.69997 20.6495L12.813 17.033L12.8025 17.0255L18.213 21.1745C19.6725 21.812 20.2035 20.4845 20.2035 20.4845L24 0.332031L8.99997 16.832Z" fill="#3CACDC"></path>
  </symbol>

  <symbol fill="none" xmlns="http://www.w3.org/2000/svg" viewBox="0 0 32 32" id="clients">
    <path d="M17.232 18.332V17.774C17.232 17.0935 16.6805 16.542 16.0005 16.542C15.32 16.542 14.7685 17.0935 14.7685 17.774V18.332C14.7685 19.0125 15.32 19.564 16.0005 19.564C16.68 19.564 17.232 19.0125 17.232 18.332Z" fill="#F0145A"></path>
    <path d="M18.077 19.0136C17.804 19.9071 16.9815 20.5631 16.0005 20.5631C15.019 20.5631 14.1965 19.9071 13.9235 19.0136H5.43904C4.90354 19.0136 4.39754 18.8891 3.94354 18.6731V24.3066C3.94354 25.4066 4.84354 26.3066 5.94354 26.3066H26.0565C27.1565 26.3066 28.0565 25.4066 28.0565 24.3066V18.6736C27.602 18.8896 27.0965 19.0141 26.561 19.0141H18.077V19.0136Z" fill="#F0145A"></path>
    <path d="M26.4775 8.8976H21.677C21.387 7.0846 19.8165 5.6936 17.923 5.6936H14.0765C12.183 5.6936 10.613 7.0846 10.3225 8.8976H5.52253C4.37653 8.8976 3.43903 9.7976 3.43903 10.8976V15.5141C3.43903 16.6186 4.33453 17.5141 5.43903 17.5141H13.829C13.8575 16.9386 14.1045 16.4216 14.495 16.0476C14.507 16.0361 14.521 16.0271 14.5335 16.0161C14.62 15.9366 14.71 15.8616 14.8085 15.7966C14.8435 15.7731 14.8835 15.7571 14.92 15.7361C15.001 15.6896 15.081 15.6411 15.1685 15.6051C15.237 15.5766 15.311 15.5601 15.383 15.5386C15.445 15.5201 15.504 15.4956 15.5685 15.4826C15.708 15.4541 15.8525 15.4391 16 15.4391C16.148 15.4391 16.292 15.4546 16.4315 15.4826C16.4955 15.4956 16.5545 15.5201 16.6165 15.5386C16.6885 15.5601 16.7625 15.5766 16.831 15.6056C16.918 15.6416 16.9975 15.6896 17.0785 15.7361C17.1155 15.7576 17.1555 15.7736 17.191 15.7971C17.2895 15.8616 17.379 15.9366 17.4655 16.0161C17.478 16.0276 17.4925 16.0366 17.5045 16.0486C17.8955 16.4226 18.142 16.9396 18.1705 17.5151H26.5605C27.665 17.5151 28.5605 16.6196 28.5605 15.5151V10.8986C28.561 9.7976 27.6235 8.8976 26.4775 8.8976ZM12.248 8.8976C12.503 8.1271 13.2215 7.5656 14.0765 7.5656H17.923C18.778 7.5656 19.4965 8.1271 19.7515 8.8976H12.248Z" fill="#F0145A"></path>
  </symbol>
  <symbol fill="none" xmlns="http://www.w3.org/2000/svg" viewBox="0 0 32 32" id="experience">
    <path d="M27.1135 6.3054C26.9445 6.1374 26.7455 6.0529 26.5155 6.0529C26.401 6.0529 26.1595 6.1469 25.7925 6.3324C25.425 6.5184 25.035 6.7254 24.6245 6.9564C24.213 7.1859 23.726 7.3939 23.164 7.5799C22.6025 7.7654 22.0825 7.8594 21.604 7.8594C21.162 7.8594 20.772 7.7754 20.436 7.6069C19.3215 7.0849 18.352 6.6954 17.529 6.4384C16.706 6.1819 15.821 6.0529 14.8735 6.0529C13.2375 6.0529 11.374 6.5849 9.285 7.6469C8.854 7.8619 8.545 8.0284 8.345 8.1504L8.1465 6.6949C8.595 6.3054 8.8845 5.7379 8.8845 5.0974C8.8845 3.9239 7.9335 2.9729 6.76 2.9729C5.5865 2.9729 4.6355 3.9239 4.6355 5.0974C4.6355 5.8629 5.0445 6.5284 5.6515 6.9024L8.5215 27.9474C8.607 28.5739 9.143 29.0284 9.7585 29.0284C9.8145 29.0284 9.8715 29.0249 9.929 29.0174C10.613 28.9234 11.092 28.2939 10.9985 27.6099L9.845 19.1514C11.938 18.1129 13.7485 17.5894 15.2715 17.5894C15.918 17.5894 16.5485 17.6859 17.163 17.8809C17.778 18.0764 18.2895 18.2884 18.6965 18.5179C19.1035 18.7479 19.584 18.9609 20.1365 19.1549C20.69 19.3499 21.2365 19.4474 21.776 19.4474C23.139 19.4474 24.7715 18.9339 26.674 17.9074C26.913 17.7834 27.088 17.6614 27.1985 17.5419C27.309 17.4224 27.3645 17.2524 27.3645 17.0314V6.9029C27.3645 6.6734 27.281 6.4739 27.1135 6.3054Z" fill="#F0145A"></path>
  </symbol>
  <symbol fill="none" xmlns="http://www.w3.org/2000/svg" viewBox="0 0 26 26" id="star">
    <path d="M13.097 0.552979C6.25252 0.552979 0.684021 6.12148 0.684021 12.966C0.684021 19.811 6.25252 25.38 13.097 25.38C19.9415 25.38 25.51 19.811 25.51 12.966C25.5105 6.12148 19.942 0.552979 13.097 0.552979ZM19.9555 12.0585V12.059L16.362 14.659L17.746 18.889C17.768 18.955 17.7795 19.0255 17.7795 19.0975C17.7795 19.467 17.4805 19.767 17.111 19.767C16.964 19.767 16.829 19.72 16.719 19.6405L13.0975 17.021L9.47602 19.6405C9.36602 19.72 9.23102 19.767 9.08452 19.767C8.71452 19.767 8.41502 19.4675 8.41502 19.0975C8.41502 19.025 8.42702 18.955 8.44902 18.889L9.83352 14.659L6.24002 12.059V12.0585C6.07202 11.9375 5.96302 11.74 5.96302 11.517C5.96302 11.1475 6.26202 10.8485 6.63202 10.8485H11.0805L12.458 6.63798C12.542 6.36448 12.7965 6.16548 13.098 6.16548C13.399 6.16548 13.654 6.36448 13.7375 6.63798L15.115 10.8485H19.5635C19.933 10.8485 20.2325 11.1475 20.2325 11.517C20.232 11.74 20.123 11.9375 19.9555 12.0585Z" fill="#F0145A"></path>
  </symbol>
</svg>